<?xml version="1.0" encoding="UTF-8"?>
<svg width="76px" height="72px" viewBox="0 0 76 72" version="1.1" xmlns="http://www.w3.org/2000/svg" xmlns:xlink="http://www.w3.org/1999/xlink">
    <!-- Generator: Sketch 61 (89581) - https://sketch.com -->
    <title>checkout-icon</title>
    <desc>Created with Sketch.</desc>
    <g id="checkout-icon" stroke="none" stroke-width="1" fill="none" fill-rule="evenodd">
        <path d="M71.332,46.5 L23.625,46.5 C23.41797,46.08203 23.20703,45.25 23.625,44.418 C24.25,42.543 26.332,41.086 29.875,40.25 L67.793,36.082 C69.875,35.87497 71.336,34 71.336,31.914 L71.336,13.164 C71.336,10.871 69.461,8.996 67.168,8.996 L15.918,8.99991 L15.08206,3.99991 C14.668,2.12491 13.00006,0.66791 10.91796,0.66791 L4.66796,0.66791 C2.37496,0.66791 0.49996,2.54291 0.49996,4.83591 C0.49996,7.12891 2.37496,9.00391 4.66796,9.00391 L7.58596,9.00391 L15.29296,47.5469 L15.29296,47.75393 C16.12499,51.92194 19.24996,54.62893 22.79296,54.62893 L71.33196,54.62503 C73.62496,54.62503 75.49996,52.75003 75.49996,50.45703 C75.49996,48.16793 73.62496,46.50003 71.33196,46.50003 L71.332,46.5 Z M29.668,31.918 L29.668,17.336 L38,17.336 L38,30.879 L29.668,31.918 Z M42.168,17.332 L50.5,17.332 L50.5,29.625 L42.168,30.45703 L42.168,17.332 Z M63,28.168 L54.668,29.00003 L54.668,17.33203 L63,17.33203 L63,28.168 Z M25.5,17.332 L25.5,32.75 C23.832,33.375 22.375,34 21.125,34.832 L17.793,17.332 L25.5,17.332 Z" id="Fill-1" fill="#FFFFFF"></path>
        <path d="M19.25,65.25 C19.25,68.7031 16.4531,71.5 13,71.5 C9.5469,71.5 6.75,68.7031 6.75,65.25 C6.75,61.7969 9.5469,59 13,59 C16.4531,59 19.25,61.7969 19.25,65.25" id="Fill-2" fill="#FFFFFF"></path>
        <path d="M69.25,65.25 C69.25,68.7031 66.4531,71.5 63,71.5 C59.5469,71.5 56.75,68.7031 56.75,65.25 C56.75,61.7969 59.5469,59 63,59 C66.4531,59 69.25,61.7969 69.25,65.25" id="Fill-3" fill="#FFFFFF"></path>
    </g>
</svg>